<mxfile host="app.diagrams.net" modified="2024-03-12T16:27:32.522Z" agent="Mozilla/5.0 (Windows NT 10.0; Win64; x64; rv:123.0) Gecko/20100101 Firefox/123.0" etag="zlRJsJMOpAllWPpejyZa" version="23.1.6" type="github">
  <diagram name="Page-1" id="BBV5YDybLTMGuDF8oxJ9">
    <mxGraphModel dx="1034" dy="414" grid="1" gridSize="10" guides="1" tooltips="1" connect="1" arrows="1" fold="1" page="1" pageScale="1" pageWidth="850" pageHeight="1100" math="0" shadow="0">
      <root>
        <mxCell id="0" />
        <mxCell id="1" parent="0" />
        <mxCell id="bWYZ-1bWyOkQmM_ll2Hk-1" value="" style="sketch=0;points=[[0.015,0.015,0],[0.985,0.015,0],[0.985,0.985,0],[0.015,0.985,0],[0.25,0,0],[0.5,0,0],[0.75,0,0],[1,0.25,0],[1,0.5,0],[1,0.75,0],[0.75,1,0],[0.5,1,0],[0.25,1,0],[0,0.75,0],[0,0.5,0],[0,0.25,0]];verticalLabelPosition=bottom;html=1;verticalAlign=top;aspect=fixed;align=center;pointerEvents=1;shape=mxgraph.cisco19.rect;prIcon=l2_switch;fillColor=#FAFAFA;strokeColor=#005073;" vertex="1" parent="1">
          <mxGeometry x="270" y="60" width="50" height="50" as="geometry" />
        </mxCell>
        <mxCell id="bWYZ-1bWyOkQmM_ll2Hk-2" value="" style="sketch=0;points=[[0.015,0.015,0],[0.985,0.015,0],[0.985,0.985,0],[0.015,0.985,0],[0.25,0,0],[0.5,0,0],[0.75,0,0],[1,0.25,0],[1,0.5,0],[1,0.75,0],[0.75,1,0],[0.5,1,0],[0.25,1,0],[0,0.75,0],[0,0.5,0],[0,0.25,0]];verticalLabelPosition=bottom;html=1;verticalAlign=top;aspect=fixed;align=center;pointerEvents=1;shape=mxgraph.cisco19.rect;prIcon=l2_switch;fillColor=#FAFAFA;strokeColor=#005073;" vertex="1" parent="1">
          <mxGeometry x="410" y="210" width="50" height="50" as="geometry" />
        </mxCell>
        <mxCell id="bWYZ-1bWyOkQmM_ll2Hk-3" value="" style="sketch=0;points=[[0.015,0.015,0],[0.985,0.015,0],[0.985,0.985,0],[0.015,0.985,0],[0.25,0,0],[0.5,0,0],[0.75,0,0],[1,0.25,0],[1,0.5,0],[1,0.75,0],[0.75,1,0],[0.5,1,0],[0.25,1,0],[0,0.75,0],[0,0.5,0],[0,0.25,0]];verticalLabelPosition=bottom;html=1;verticalAlign=top;aspect=fixed;align=center;pointerEvents=1;shape=mxgraph.cisco19.rect;prIcon=l2_switch;fillColor=#FAFAFA;strokeColor=#005073;" vertex="1" parent="1">
          <mxGeometry x="150" y="200" width="50" height="50" as="geometry" />
        </mxCell>
        <mxCell id="bWYZ-1bWyOkQmM_ll2Hk-4" style="rounded=0;orthogonalLoop=1;jettySize=auto;html=1;exitX=0;exitY=0.75;exitDx=0;exitDy=0;exitPerimeter=0;entryX=0.75;entryY=0;entryDx=0;entryDy=0;entryPerimeter=0;" edge="1" parent="1" source="bWYZ-1bWyOkQmM_ll2Hk-1" target="bWYZ-1bWyOkQmM_ll2Hk-3">
          <mxGeometry relative="1" as="geometry" />
        </mxCell>
        <mxCell id="bWYZ-1bWyOkQmM_ll2Hk-5" style="rounded=0;orthogonalLoop=1;jettySize=auto;html=1;exitX=1;exitY=0.75;exitDx=0;exitDy=0;exitPerimeter=0;entryX=0.22;entryY=0.46;entryDx=0;entryDy=0;entryPerimeter=0;" edge="1" parent="1" source="bWYZ-1bWyOkQmM_ll2Hk-1" target="bWYZ-1bWyOkQmM_ll2Hk-2">
          <mxGeometry relative="1" as="geometry" />
        </mxCell>
        <mxCell id="bWYZ-1bWyOkQmM_ll2Hk-6" style="rounded=0;orthogonalLoop=1;jettySize=auto;html=1;exitX=0;exitY=0.75;exitDx=0;exitDy=0;exitPerimeter=0;entryX=0.985;entryY=0.985;entryDx=0;entryDy=0;entryPerimeter=0;" edge="1" parent="1" source="bWYZ-1bWyOkQmM_ll2Hk-2" target="bWYZ-1bWyOkQmM_ll2Hk-3">
          <mxGeometry relative="1" as="geometry" />
        </mxCell>
        <mxCell id="bWYZ-1bWyOkQmM_ll2Hk-7" value="CC" style="text;html=1;align=center;verticalAlign=middle;resizable=0;points=[];autosize=1;strokeColor=none;fillColor=none;" vertex="1" parent="1">
          <mxGeometry x="320" y="58" width="40" height="30" as="geometry" />
        </mxCell>
        <mxCell id="bWYZ-1bWyOkQmM_ll2Hk-8" value="SG" style="text;html=1;align=center;verticalAlign=middle;resizable=0;points=[];autosize=1;strokeColor=none;fillColor=none;" vertex="1" parent="1">
          <mxGeometry x="460" y="218" width="40" height="30" as="geometry" />
        </mxCell>
        <mxCell id="bWYZ-1bWyOkQmM_ll2Hk-9" value="WS" style="text;html=1;align=center;verticalAlign=middle;resizable=0;points=[];autosize=1;strokeColor=none;fillColor=none;" vertex="1" parent="1">
          <mxGeometry x="90" y="218" width="40" height="30" as="geometry" />
        </mxCell>
        <mxCell id="bWYZ-1bWyOkQmM_ll2Hk-10" value="Fibre" style="text;html=1;align=center;verticalAlign=middle;resizable=0;points=[];autosize=1;strokeColor=none;fillColor=none;" vertex="1" parent="1">
          <mxGeometry x="190" y="130" width="50" height="30" as="geometry" />
        </mxCell>
        <mxCell id="bWYZ-1bWyOkQmM_ll2Hk-11" value="Fibre" style="text;html=1;align=center;verticalAlign=middle;resizable=0;points=[];autosize=1;strokeColor=none;fillColor=none;" vertex="1" parent="1">
          <mxGeometry x="360" y="130" width="50" height="30" as="geometry" />
        </mxCell>
        <mxCell id="bWYZ-1bWyOkQmM_ll2Hk-12" value="Microwave" style="text;html=1;align=center;verticalAlign=middle;resizable=0;points=[];autosize=1;strokeColor=none;fillColor=none;" vertex="1" parent="1">
          <mxGeometry x="240" y="248" width="80" height="30" as="geometry" />
        </mxCell>
        <mxCell id="bWYZ-1bWyOkQmM_ll2Hk-13" value="" style="ellipse;shape=cloud;whiteSpace=wrap;html=1;" vertex="1" parent="1">
          <mxGeometry x="580" y="320" width="90" height="50" as="geometry" />
        </mxCell>
        <mxCell id="bWYZ-1bWyOkQmM_ll2Hk-14" value="" style="ellipse;shape=cloud;whiteSpace=wrap;html=1;" vertex="1" parent="1">
          <mxGeometry x="55" y="340" width="90" height="50" as="geometry" />
        </mxCell>
        <mxCell id="bWYZ-1bWyOkQmM_ll2Hk-15" style="rounded=0;orthogonalLoop=1;jettySize=auto;html=1;exitX=0.015;exitY=0.985;exitDx=0;exitDy=0;exitPerimeter=0;entryX=0.511;entryY=0.06;entryDx=0;entryDy=0;entryPerimeter=0;" edge="1" parent="1" source="bWYZ-1bWyOkQmM_ll2Hk-3" target="bWYZ-1bWyOkQmM_ll2Hk-14">
          <mxGeometry relative="1" as="geometry" />
        </mxCell>
        <mxCell id="bWYZ-1bWyOkQmM_ll2Hk-16" style="rounded=0;orthogonalLoop=1;jettySize=auto;html=1;exitX=0.985;exitY=0.985;exitDx=0;exitDy=0;exitPerimeter=0;entryX=0.4;entryY=0.1;entryDx=0;entryDy=0;entryPerimeter=0;" edge="1" parent="1" source="bWYZ-1bWyOkQmM_ll2Hk-2" target="bWYZ-1bWyOkQmM_ll2Hk-13">
          <mxGeometry relative="1" as="geometry" />
        </mxCell>
        <mxCell id="bWYZ-1bWyOkQmM_ll2Hk-17" value="OSPF area 0" style="text;html=1;align=center;verticalAlign=middle;resizable=0;points=[];autosize=1;strokeColor=none;fillColor=none;" vertex="1" parent="1">
          <mxGeometry x="225" y="168" width="90" height="30" as="geometry" />
        </mxCell>
        <mxCell id="bWYZ-1bWyOkQmM_ll2Hk-18" value="0.0.0.0/0&lt;br&gt;prefer WS" style="text;html=1;align=center;verticalAlign=middle;resizable=0;points=[];autosize=1;strokeColor=none;fillColor=none;" vertex="1" parent="1">
          <mxGeometry x="170" y="53" width="80" height="40" as="geometry" />
        </mxCell>
      </root>
    </mxGraphModel>
  </diagram>
</mxfile>
